# xmcd CD database file
#
# Track frame offsets:
#	150
#	13057
#	25355
#	39124
#	50749
#	63738
#	74475
#	86661
#	99936
#	112352
#	124041
#	138297
#	153213
#	173704
#	185481
#	202618
#	216996
#	229021
#	239324
#	255430
#
# Disc length: 3612 seconds
#
# Revision: 0
# Processed by: cddbd v1.5.1PL2 Copyright (c) Steve Scherf et al.
# Submitted via: CDex 1.51
#
DISCID=140e1a14
DTITLE=Various Artist - Country Legends
DYEAR=2004
DGENRE=Country
TTITLE0=Kenny Rogers - Ruby Don't Take Your Love to Town
TTITLE1=Glen Campbell - By the Time I Get to Phoenix
TTITLE2=Willie Nelson - Funny How Time Slips Away
TTITLE3=Crystal Gayle - Don't It Make My Brown Eyes Blue
TTITLE4=Bobbie Gentry - I'll Never Fall in Love Again
TTITLE5=Slim Whitman - Rose Marie
TTITLE6=George Jones - Beggar to a King
TTITLE7=Tanya Tucker - San Antonio Stroll
TTITLE8=Billie Jo Spears - What I've Got in Mind
TTITLE9=Merle Haggard - Workin' Man Blues
TTITLE10=Don Williams - Desperately
TTITLE11=Deana Carter - Brand New Key
TTITLE12=Suzy Bogguss - Take it to the Limit
TTITLE13=Lacy J Dalton - Love Hurts
TTITLE14=Nitty Gritty Dirt Band - All I Have to do is Dream
TTITLE15=Eddie Rabbitt - I Love a Rainy Night
TTITLE16=Wanda Jackson - Stand By Your Man
TTITLE17=Tennessee Ernie Ford - King Of The Road
TTITLE18=Joe South - Games People Play
TTITLE19=Juice Newton - It's a Heartache
EXTD=YEAR: 2004
EXTT0=
EXTT1=
EXTT2=
EXTT3=
EXTT4=
EXTT5=
EXTT6=
EXTT7=
EXTT8=
EXTT9=
EXTT10=
EXTT11=
EXTT12=
EXTT13=
EXTT14=
EXTT15=
EXTT16=
EXTT17=
EXTT18=
EXTT19=
PLAYORDER=
